<?xml version="1.0" standalone="no"?>
<!DOCTYPE svg PUBLIC "-//W3C//DTD SVG 20010904//EN"
 "http://www.w3.org/TR/2001/REC-SVG-20010904/DTD/svg10.dtd">
<svg version="1.0" xmlns="http://www.w3.org/2000/svg"
 width="1024.000000pt" height="1024.000000pt" viewBox="0 0 1024.000000 1024.000000"
 preserveAspectRatio="xMidYMid meet">

<g transform="translate(0.000000,1024.000000) scale(0.100000,-0.100000)"
fill="#000000" stroke="none">
<path d="M5145 7359 c-412 -72 -850 -281 -1242 -591 -98 -78 -307 -281 -368
-359 -25 -32 -44 -59 -42 -59 3 0 42 25 88 56 177 116 424 222 654 279 183 45
306 57 552 53 l222 -3 42 65 c185 289 471 470 743 470 99 0 178 -19 266 -65
79 -42 44 -10 -50 45 -84 48 -185 85 -309 110 -135 27 -398 27 -556 -1z"/>
<path d="M4493 6620 c-552 -70 -1041 -349 -1366 -782 -105 -140 -158 -225
-291 -468 -158 -285 -244 -407 -339 -474 -26 -18 -43 -37 -39 -41 4 -5 2 -5
-5 -1 -7 4 -21 -2 -33 -14 -11 -11 -17 -20 -13 -20 5 0 1 -5 -7 -11 -11 -8 -6
-9 20 -5 19 3 42 1 50 -4 8 -5 11 -10 5 -10 -5 0 -3 -5 5 -10 8 -5 23 -7 34
-4 11 4 16 2 12 -4 -3 -5 1 -13 10 -16 8 -3 12 -2 9 4 -3 6 1 7 9 4 9 -3 14
-10 11 -14 -3 -4 2 -11 11 -14 8 -3 12 -2 9 4 -12 20 6 9 32 -17 15 -16 23
-21 19 -13 -4 8 1 4 12 -9 10 -13 24 -21 30 -17 6 3 14 1 18 -5 4 -8 3 -9 -4
-5 -24 15 -11 -2 14 -19 18 -12 24 -13 19 -4 -4 8 3 2 16 -12 33 -36 118 -99
100 -74 -8 11 1 3 20 -17 47 -50 122 -112 94 -77 -11 14 0 4 25 -21 25 -25 41
-39 35 -30 -5 9 8 -2 30 -25 22 -22 36 -34 30 -25 -5 9 8 -2 30 -25 22 -22 36
-34 30 -25 -5 9 6 0 25 -20 19 -20 44 -43 54 -51 17 -12 19 -12 12 1 -5 8 2 3
15 -11 13 -14 33 -32 43 -40 17 -12 19 -12 12 1 -5 8 2 3 15 -11 31 -34 87
-71 75 -49 -4 8 2 4 14 -10 12 -14 19 -18 15 -10 -4 8 2 5 12 -6 23 -28 69
-53 58 -32 -4 7 2 3 12 -8 24 -28 61 -47 75 -38 6 4 8 3 5 -3 -8 -12 61 -46
75 -37 6 4 8 3 5 -3 -8 -13 41 -36 55 -27 7 5 8 2 3 -6 -6 -10 -4 -12 11 -6
10 4 15 4 11 0 -10 -10 52 -36 67 -27 6 3 8 2 3 -2 -9 -10 51 -37 64 -29 5 3
9 0 9 -6 0 -7 7 -9 16 -6 10 4 13 2 8 -6 -5 -7 0 -9 14 -6 14 4 20 2 15 -5 -4
-6 2 -8 15 -5 12 4 20 3 17 -1 -2 -5 45 -23 106 -40 673 -198 1412 -122 2079
213 250 125 386 214 755 491 138 103 300 220 360 260 289 190 592 324 815 360
l75 12 -138 8 c-89 5 -182 3 -259 -4 -112 -11 -124 -14 -167 -45 -135 -97
-317 -181 -711 -326 -392 -145 -607 -237 -856 -365 -421 -218 -692 -291 -1130
-302 -301 -8 -552 20 -845 96 -224 58 -480 156 -574 221 -25 17 -50 28 -57 24
-7 -4 -8 -3 -4 4 7 12 -32 38 -49 33 -5 -1 -7 0 -4 3 3 4 -38 50 -92 103 -99
97 -124 134 -50 75 22 -18 51 -37 65 -43 14 -7 23 -16 19 -22 -3 -6 -1 -7 5
-3 6 3 16 -3 22 -14 6 -11 15 -18 20 -15 4 3 11 -1 13 -7 4 -10 6 -10 6 0 1 8
6 10 14 6 6 -4 3 2 -7 14 -11 12 -21 20 -24 17 -3 -3 -12 4 -19 15 -8 11 -20
17 -26 14 -7 -4 -9 -4 -5 1 4 4 -3 16 -15 26 -43 36 -7 18 85 -41 110 -72 267
-151 302 -154 13 0 22 -4 21 -7 -6 -9 206 -75 345 -108 213 -51 333 -65 560
-65 218 0 304 10 488 59 179 47 335 127 527 268 323 238 408 291 559 353 157
64 318 92 666 114 375 25 561 78 780 225 271 182 460 418 595 745 30 73 55
135 55 138 0 4 -19 -22 -42 -58 -218 -335 -673 -482 -1129 -366 -216 55 -392
134 -799 361 -531 295 -797 403 -1150 466 -130 24 -528 35 -657 19z m1302
-960 c-183 -28 -319 -107 -525 -304 -310 -300 -420 -383 -622 -470 -306 -131
-681 -134 -1043 -9 -96 33 -259 112 -250 121 2 2 41 -12 87 -31 268 -114 630
-126 913 -32 149 49 304 143 570 341 193 145 285 208 385 262 135 74 341 130
475 130 l60 0 -50 -8z m-2461 -109 c108 -72 77 -229 -51 -256 -22 -4 -46 0
-77 13 -78 35 -107 128 -61 199 39 59 132 81 189 44z m30 -949 c3 -5 -1 -9 -9
-9 -8 0 -12 4 -9 9 3 4 7 8 9 8 2 0 6 -4 9 -8z m-463 -79 c13 -16 12 -17 -3
-4 -17 13 -22 21 -14 21 2 0 10 -8 17 -17z m290 -240 c13 -16 12 -17 -3 -4
-17 13 -22 21 -14 21 2 0 10 -8 17 -17z"/>
<path d="M2345 4820 c3 -5 10 -10 16 -10 5 0 9 5 9 10 0 6 -7 10 -16 10 -8 0
-12 -4 -9 -10z"/>
<path d="M3400 4576 c0 -2 8 -10 18 -17 15 -13 16 -12 3 4 -13 16 -21 21 -21
13z"/>
<path d="M3446 4531 c-3 -5 6 -16 20 -26 20 -13 29 -14 38 -5 8 8 6 9 -8 4
-14 -5 -17 -4 -12 5 4 6 4 11 -1 10 -20 -3 -34 2 -28 11 3 6 4 10 1 10 -3 0
-7 -4 -10 -9z"/>
<path d="M3570 4461 c0 -9 114 -60 170 -76 47 -14 15 3 -55 30 -38 14 -80 33
-92 41 -13 8 -23 10 -23 5z"/>
<path d="M3940 3620 c8 -5 20 -10 25 -10 6 0 3 5 -5 10 -8 5 -19 10 -25 10 -5
0 -3 -5 5 -10z"/>
<path d="M5470 3569 c-316 -86 -694 -108 -1034 -62 -67 9 -133 17 -148 17 -14
1 -24 3 -22 6 3 2 -28 12 -68 21 -73 18 -124 16 -112 -3 6 -9 -12 -6 -52 9 -7
2 -15 0 -19 -6 -3 -6 -11 -11 -16 -11 -6 0 -7 5 -3 12 5 7 3 8 -6 3 -10 -6 -7
-12 11 -26 22 -16 25 -16 41 -2 19 17 25 4 7 -14 -10 -10 5 -23 60 -52 19 -11
22 -11 16 1 -4 7 2 3 12 -8 21 -25 70 -54 58 -34 -6 9 -2 9 14 1 11 -7 21 -16
21 -22 0 -6 5 -7 10 -4 6 3 10 2 10 -4 0 -6 14 -18 31 -27 17 -8 28 -11 25 -5
-4 7 -1 8 8 5 9 -3 14 -10 11 -14 -3 -4 2 -11 11 -14 8 -3 12 -2 9 4 -3 6 1 7
9 4 9 -3 14 -10 11 -14 -3 -4 2 -11 11 -14 8 -3 12 -2 9 4 -3 6 1 7 9 4 9 -3
16 -10 16 -16 0 -5 5 -6 10 -3 6 3 10 1 10 -5 0 -7 7 -9 16 -6 8 3 13 2 10 -3
-7 -11 22 -23 35 -15 5 3 9 0 9 -6 0 -7 7 -9 16 -6 10 4 13 2 8 -6 -5 -7 0 -9
14 -6 12 4 20 2 16 -3 -5 -9 0 -11 29 -13 6 -1 14 -4 17 -7 9 -11 102 -39 111
-33 5 3 9 0 9 -7 0 -6 8 -9 20 -6 11 3 18 1 15 -3 -7 -11 51 -23 66 -14 8 5 9
3 4 -6 -6 -10 -3 -12 13 -8 12 3 22 2 24 -3 3 -10 199 -51 338 -71 148 -20
582 -17 745 6 250 35 518 113 700 203 58 29 225 139 225 149 0 1 -26 -11 -58
-27 -276 -138 -651 -131 -945 17 -76 38 -204 123 -232 154 -23 25 -36 24 -165
-11z m-1430 -27 c0 -13 -12 -22 -22 -16 -10 6 -1 24 13 24 5 0 9 -4 9 -8z m52
-40 c-7 -2 -9 -9 -5 -15 3 -7 2 -8 -2 -4 -16 14 -14 36 3 29 10 -4 12 -7 4
-10z"/>
<path d="M4078 3573 c7 -3 16 -2 19 1 4 3 -2 6 -13 5 -11 0 -14 -3 -6 -6z"/>
</g>
</svg>
